<svg width="21" height="20" viewBox="0 0 21 20" fill="none" xmlns="http://www.w3.org/2000/svg">
<path d="M10.5063 9.91671C10.8632 9.91671 11.1667 9.78962 11.4167 9.53544C11.6667 9.28126 11.7917 8.9757 11.7917 8.61877C11.7917 8.26184 11.6646 7.95837 11.4104 7.70837C11.1562 7.45837 10.8507 7.33337 10.4937 7.33337C10.1368 7.33337 9.83333 7.46046 9.58333 7.71465C9.33333 7.96883 9.20833 8.27438 9.20833 8.63131C9.20833 8.98824 9.33542 9.29171 9.5896 9.54171C9.84378 9.79171 10.1493 9.91671 10.5063 9.91671ZM10.5 17.625C8.41701 15.8597 6.86502 14.2412 5.84402 12.7697C4.82301 11.2983 4.3125 9.90976 4.3125 8.60421C4.3125 7.17365 4.85069 5.78129 5.92708 4.42712C7.00347 3.07296 8.52431 2.39587 10.4896 2.39587C12.4549 2.39587 13.9792 3.07296 15.0625 4.42712C16.1458 5.78129 16.6875 7.17365 16.6875 8.60421C16.6875 9.90976 16.1806 11.2952 15.1667 12.7605C14.1528 14.2257 12.5972 15.8473 10.5 17.625Z" fill="#810059"/>
</svg>
