<svg width="27" height="24" viewBox="0 0 27 24" fill="none" xmlns="http://www.w3.org/2000/svg">
<path d="M13.4269 8.36275C13.4269 9.0706 12.8532 9.6445 12.1454 9.6445C11.4377 9.6445 10.8638 9.0706 10.8638 8.36275C10.8638 7.6549 11.4377 7.0813 12.1454 7.0813C12.8532 7.0813 13.4269 7.65475 13.4269 8.36275Z" fill="black"/>
<path d="M19.4145 8.36275C19.4145 9.0706 18.8406 9.6445 18.1327 9.6445C17.425 9.6445 16.8512 9.0706 16.8512 8.36275C16.8512 7.6549 17.425 7.0813 18.1327 7.0813C18.8406 7.0813 19.4145 7.65475 19.4145 8.36275Z" fill="black"/>
<path d="M15.0931 15.2349C12.9216 15.2349 10.9653 13.8111 10.6065 11.9473C10.5369 11.5855 10.7739 11.2356 11.1357 11.166C11.4976 11.0962 11.8474 11.3334 11.917 11.6952C12.1279 12.7908 13.4398 13.9446 15.1885 13.8988C17.0101 13.8511 18.2133 12.7618 18.4605 11.7106C18.5449 11.352 18.9046 11.1298 19.263 11.2138C19.6219 11.2983 19.8442 11.6575 19.7598 12.0162C19.5579 12.8743 19.0053 13.6693 18.2035 14.2551C17.3685 14.8656 16.3378 15.2037 15.2236 15.2331C15.1801 15.2344 15.1365 15.2349 15.0931 15.2349Z" fill="black"/>
<path d="M26.0955 9.05846C25.8489 7.60196 25.2705 6.23681 24.3759 5.00081C23.3655 3.60476 21.9833 2.43911 20.3787 1.63001C18.7569 0.812211 16.9467 0.379761 15.1437 0.379761C14.6351 0.379761 14.1223 0.414261 13.6197 0.482061C11.5146 0.766461 9.44475 1.64216 7.7913 2.94791C5.9283 4.41911 4.72605 6.31061 4.31475 8.41826C4.1922 9.04481 4.14 9.73796 4.08945 10.4082C4.01025 11.4573 3.92835 12.5421 3.59475 13.251C3.36675 13.7355 3.02655 14.0581 2.1069 14.0581C1.6008 14.0581 1.13835 14.3443 0.91245 14.7973C0.6867 15.2503 0.736501 15.792 1.041 16.1959C2.42655 18.034 4.23465 19.1473 6.1383 19.8181C6.0516 20.08 6.00285 20.3589 6.00285 20.6499C6.00285 22.1115 7.1877 23.2963 8.6493 23.2963C10.0748 23.2963 11.2337 22.1686 11.2902 20.7571C11.9108 20.7909 14.8656 20.799 15.1952 20.7897C15.2682 22.186 16.4202 23.2963 17.8346 23.2963C19.296 23.2963 20.4809 22.1116 20.4809 20.6499C20.4809 20.3167 20.4167 19.9992 20.3045 19.7056C21.3422 19.2009 22.3217 18.5197 23.1764 17.6994C24.3683 16.5556 25.2431 15.2062 25.7066 13.797C26.2281 12.2109 26.3592 10.6165 26.0955 9.05846ZM8.6493 21.5232C8.16705 21.5232 7.776 21.1324 7.776 20.6499C7.776 20.1676 8.16705 19.7766 8.6493 19.7766C9.1317 19.7766 9.5226 20.1676 9.5226 20.6499C9.5226 21.1324 9.1317 21.5232 8.6493 21.5232ZM17.8346 21.5232C17.3522 21.5232 16.9611 21.1324 16.9611 20.6499C16.9611 20.1676 17.3522 19.7766 17.8346 19.7766C18.317 19.7766 18.7078 20.1676 18.7078 20.6499C18.708 21.1324 18.317 21.5232 17.8346 21.5232ZM24.4388 13.3801C23.6745 15.7036 21.6602 17.6223 19.5135 18.6046C19.0564 18.229 18.472 18.0037 17.8347 18.0037C16.8075 18.0037 15.9191 18.5896 15.4806 19.4448C15.0342 19.4632 11.7104 19.4518 10.983 19.402C10.5372 18.57 9.6597 18.0037 8.64945 18.0037C7.97745 18.0037 7.3656 18.256 6.8991 18.6688C5.091 18.0846 3.3834 17.0862 2.10705 15.3925C5.8812 15.3925 5.13645 11.1748 5.6247 8.67371C6.36855 4.86191 10.1396 2.29886 13.7984 1.80461C14.2484 1.74386 14.6984 1.71431 15.1437 1.71431C21.1571 1.71446 26.5098 7.08326 24.4388 13.3801Z" fill="black"/>
</svg>
