<svg width="40" height="45" viewBox="0 0 40 45" fill="none" xmlns="http://www.w3.org/2000/svg">
<path fill-rule="evenodd" clip-rule="evenodd" d="M34.1728 6.44622C32.3275 4.3969 30.1321 2.77194 27.7137 1.66544C25.2953 0.558937 22.702 -0.00711267 20.084 6.74604e-05C9.10185 6.74604e-05 0.171895 9.8595 0.16712 21.9762C0.162579 25.8331 1.07961 29.6232 2.82577 32.9643L0 44.3528L10.5582 41.2967C13.4783 43.0516 16.7504 43.9711 20.0754 43.9713H20.084C31.0605 43.9713 39.9962 34.1119 40 21.9941C40.0082 19.1061 39.4973 16.2451 38.4971 13.5763C37.4969 10.9076 36.0271 8.48417 34.1728 6.44622ZM20.084 40.2598H20.0774C17.1127 40.2602 14.2025 39.3808 11.6516 37.7138L11.0471 37.3176L4.78155 39.1343L6.45466 32.3899L6.06026 31.6986C4.40268 28.7864 3.52535 25.4162 3.52958 21.9773C3.52958 11.9049 10.9593 3.71158 20.0907 3.71158C22.2651 3.71283 24.4179 4.1867 26.4262 5.10614C28.4346 6.02559 30.2591 7.37259 31.7957 9.07022C33.3322 10.7679 34.5507 12.7829 35.3815 15.0002C36.2122 17.2175 36.6391 19.5937 36.6375 21.9931C36.6337 32.0654 29.2079 40.2598 20.084 40.2598ZM29.1639 26.5792C28.6664 26.3042 26.2197 24.9753 25.7633 24.7878C25.3068 24.6002 24.9754 24.5138 24.644 25.0628C24.3127 25.6118 23.3586 26.8543 23.0683 27.2157C22.778 27.5772 22.4877 27.6288 21.9902 27.3538C21.4926 27.0787 19.8892 26.4992 17.9879 24.6276C16.5086 23.1723 15.5049 21.3734 15.2185 20.8233C14.932 20.2732 15.1879 19.9803 15.4371 19.7031C15.6606 19.4565 15.9347 19.0614 16.183 18.741C16.4313 18.4206 16.5153 18.1909 16.6805 17.8252C16.8457 17.4596 16.7636 17.1371 16.6395 16.8631C16.5153 16.5891 15.5202 13.8851 15.1048 12.7849C14.7009 11.7142 14.2912 11.8596 13.9856 11.8428C13.6991 11.827 13.3629 11.8228 13.0306 11.8228C12.7784 11.8303 12.5303 11.8952 12.3019 12.0134C12.0735 12.1316 11.8697 12.3006 11.7032 12.5098C11.2477 13.0599 9.96228 14.3888 9.96228 17.0918C9.96228 19.7948 11.7452 22.4062 11.9935 22.7718C12.2418 23.1375 15.503 28.6858 20.4928 31.0642C21.4193 31.5056 22.3664 31.8925 23.33 32.2234C24.5228 32.645 25.6076 32.5817 26.4642 32.4405C27.4192 32.2835 29.4094 31.1127 29.8238 29.8292C30.2383 28.5456 30.2383 27.4476 30.1103 27.2178C29.9823 26.9881 29.6615 26.8543 29.1639 26.5792Z" fill="white"/>
</svg>
